nColumns=19
nRows=76
DataType=double
version=3
OpenSimVersion=4.1
endheader
time	ground_force_calcn_r_vx	ground_force_calcn_r_vy	ground_force_calcn_r_vz	ground_force_calcn_r_px	ground_force_calcn_r_py	ground_force_calcn_r_pz	ground_force_calcn_r_mx	ground_force_calcn_r_my	ground_force_calcn_r_mz	ground_force_calcn_l_vx	ground_force_calcn_l_vy	ground_force_calcn_l_vz	ground_force_calcn_l_px	ground_force_calcn_l_py	ground_force_calcn_l_pz	ground_force_calcn_l_mx	ground_force_calcn_l_my	ground_force_calcn_l_mz
6.56	-7.3982	482.097	-43.2553	-0.255502	0	-0.407774	0.205416	-13.3857	1.20101	16.2712	361.85	37.4233	-0.226507	0	-0.861618	0.436618	9.70983	1.00421
6.57	-6.66825	488.226	-44.1719	-0.25598	0	-0.407963	0.180706	-13.2306	1.19703	16.0694	361.474	37.1063	-0.22709	0	-0.861648	0.425499	9.57143	0.982533
6.58	-6.0367	495.14	-45.2721	-0.256244	0	-0.408059	0.159459	-13.0791	1.19586	15.8671	361.808	36.8941	-0.227587	0	-0.861726	0.413338	9.42507	0.961089
6.59	-5.50579	502.762	-46.5376	-0.256292	0	-0.408066	0.141596	-12.9299	1.19684	15.6681	362.901	36.8043	-0.227995	0	-0.86186	0.400268	9.2709	0.940226
6.6	-5.0694	510.997	-47.9419	-0.256129	0	-0.407992	0.126797	-12.7812	1.19914	15.4706	364.789	36.8549	-0.228306	0	-0.862051	0.386282	9.10832	0.920219
6.61	-4.71662	519.74	-49.4529	-0.255764	0	-0.407848	0.114624	-12.6308	1.20181	15.2663	367.49	37.0618	-0.22851	0	-0.862305	0.371218	8.93597	0.901203
6.62	-4.43802	528.877	-51.0341	-0.255211	0	-0.407645	0.10469	-12.4759	1.20386	15.0399	370.995	37.4381	-0.228593	0	-0.862628	0.354787	8.75168	0.883155
6.63	-4.22742	538.275	-52.6459	-0.254489	0	-0.407399	0.0967027	-12.3131	1.20428	14.7709	375.265	37.9919	-0.228546	0	-0.863022	0.336647	8.55276	0.865885
6.64	-4.07772	547.789	-54.2466	-0.253624	0	-0.407123	0.0903642	-12.1393	1.20213	14.4352	380.227	38.7256	-0.228355	0	-0.863491	0.316487	8.33636	0.849047
6.65	-3.9759	557.259	-55.794	-0.252647	0	-0.406832	0.0852695	-11.9513	1.19659	14.007	385.768	39.633	-0.228014	0	-0.864029	0.294101	8.09986	0.832163
6.66	-3.90201	566.507	-57.2485	-0.251599	0	-0.406543	0.0809076	-11.7464	1.18704	13.4611	391.732	40.6985	-0.227523	0	-0.864635	0.26945	7.84128	0.81466
6.67	-3.83436	575.332	-58.5752	-0.250516	0	-0.406269	0.0767903	-11.5221	1.17308	12.7761	397.922	41.8964	-0.226884	0	-0.865295	0.242714	7.55955	0.79593
6.68	-3.75938	583.506	-59.7448	-0.249432	0	-0.406019	0.0726487	-11.2761	1.15455	11.9397	404.115	43.1906	-0.226111	0	-0.865997	0.214341	7.25467	0.775358
6.69	-3.67631	590.786	-60.7339	-0.248371	0	-0.405801	0.0684899	-11.0064	1.13148	10.9525	410.07	44.5359	-0.225225	0	-0.866721	0.185028	6.92761	0.752377
6.7	-3.59214	596.929	-61.526	-0.247351	0	-0.405618	0.0644617	-10.712	1.1041	9.82845	415.547	45.8819	-0.224251	0	-0.867451	0.155632	6.58011	0.726532
6.71	-3.51401	601.72	-62.1118	-0.246384	0	-0.405467	0.0606944	-10.393	1.0728	8.59287	420.321	47.1793	-0.223217	0	-0.868167	0.127045	6.21442	0.697543
6.72	-3.44482	604.987	-62.4901	-0.245481	0	-0.40535	0.0572269	-10.0503	1.03811	7.27886	424.195	48.3829	-0.222151	0	-0.868859	0.100096	5.83335	0.665341
6.73	-3.3827	606.611	-62.6674	-0.24465	0	-0.405263	0.0540143	-9.68625	1.00066	5.92377	427.013	49.4561	-0.221076	0	-0.869514	0.0754679	5.44008	0.630064
6.74	-3.32292	606.53	-62.6563	-0.243898	0	-0.405204	0.0509722	-9.30392	0.96112	4.56668	428.675	50.3734	-0.22001	0	-0.870128	0.0536727	5.03827	0.592045
6.75	-3.26	604.741	-62.4751	-0.243225	0	-0.405167	0.0480161	-8.90717	0.92019	3.24605	429.142	51.1213	-0.218973	0	-0.870696	0.0350363	4.63195	0.551778
6.76	-3.1866	601.297	-62.1465	-0.242633	0	-0.405145	0.0450481	-8.50035	0.878546	1.9964	428.434	51.6986	-0.217979	0	-0.871217	0.0196899	4.22554	0.50989
6.77	-3.0923	596.313	-61.6981	-0.242125	0	-0.405136	0.0419429	-8.08819	0.836851	0.845678	426.624	52.115	-0.217043	0	-0.871691	0.00757993	3.82388	0.467114
6.78	-2.96643	589.96	-61.1634	-0.241701	0	-0.405132	0.0385931	-7.67536	0.795733	-0.185079	423.824	52.3897	-0.216177	0	-0.87212	-0.00149865	3.43184	0.424216
6.79	-2.80079	582.452	-60.58	-0.241362	0	-0.405128	0.0349407	-7.26628	0.755755	-1.08105	420.178	52.5481	-0.215395	0	-0.872506	-0.00785739	3.05398	0.381935
6.8	-2.5902	574.031	-59.9859	-0.24111	0	-0.40512	0.0309765	-6.86491	0.717379	-1.83185	415.847	52.6162	-0.214707	0	-0.872851	-0.0118695	2.69449	0.340928
6.81	-2.33338	564.95	-59.4162	-0.240947	0	-0.405103	0.0267421	-6.4747	0.680949	-2.43074	410.994	52.6162	-0.214129	0	-0.873152	-0.0139397	2.35696	0.301741
6.82	-2.03408	555.448	-58.9	-0.240873	0	-0.405075	0.0223322	-6.09827	0.646664	-2.87631	405.778	52.5638	-0.213672	0	-0.87341	-0.0144906	2.04427	0.264812
6.83	-1.69952	545.737	-58.4584	-0.240888	0	-0.405031	0.0178675	-5.73747	0.614587	-3.17336	400.341	52.4692	-0.213348	0	-0.873619	-0.0139399	1.75862	0.230487
6.84	-1.33818	535.999	-58.1034	-0.24099	0	-0.40497	0.0134652	-5.39339	0.584655	-3.33252	394.816	52.339	-0.213169	0	-0.873777	-0.0126717	1.50126	0.199015
6.85	-0.960749	526.377	-57.8387	-0.241175	0	-0.404896	0.00924748	-5.06653	0.556714	-3.36992	389.328	52.1795	-0.213144	0	-0.873878	-0.0110158	1.27266	0.170568
6.86	-0.579533	516.987	-57.6606	-0.241438	0	-0.404807	0.00533257	-4.75705	0.530563	-3.30548	383.991	51.9973	-0.213281	0	-0.873916	-0.00923234	1.0725	0.14523
6.87	-0.205915	507.91	-57.5579	-0.241774	0	-0.40471	0.00181014	-4.46491	0.505977	-3.16027	378.91	51.8	-0.213586	0	-0.873885	-0.00750398	0.899711	0.122998
6.88	0.149928	499.192	-57.5137	-0.242179	0	-0.404608	-0.00125839	-4.18987	0.48273	-2.95416	374.171	51.595	-0.214061	0	-0.873781	-0.00594131	0.752519	0.103766
6.89	0.478412	490.84	-57.5062	-0.242645	0	-0.404507	-0.003832	-3.93155	0.460616	-2.70453	369.837	51.3887	-0.214706	0	-0.8736	-0.00459716	0.628649	0.0873506
6.9	0.769269	482.819	-57.5101	-0.243168	0	-0.404414	-0.00587803	-3.68925	0.439439	-2.4263	365.945	51.1865	-0.215519	0	-0.873342	-0.00348388	0.525453	0.0734977
6.91	1.01038	475.057	-57.4979	-0.243736	0	-0.404336	-0.00736276	-3.46179	0.418994	-2.13261	362.503	50.9923	-0.216491	0	-0.873005	-0.00258916	0.440108	0.0619088
6.92	1.18889	467.458	-57.4424	-0.24434	0	-0.404277	-0.00825925	-3.24743	0.399052	-1.83556	359.497	50.809	-0.217613	0	-0.872594	-0.00188758	0.369686	0.052249
6.93	1.29321	459.911	-57.318	-0.244969	0	-0.404243	-0.00855899	-3.04388	0.379354	-1.54574	356.897	50.6377	-0.218868	0	-0.872111	-0.00134815	0.311275	0.0441647
6.94	1.31474	452.3	-57.1036	-0.245613	0	-0.404234	-0.00828003	-2.84852	0.35963	-1.27155	354.667	50.4783	-0.220242	0	-0.871562	-0.000939499	0.262049	0.0372964
6.95	1.25045	444.522	-56.7835	-0.246263	0	-0.404252	-0.00747906	-2.65873	0.339628	-1.01912	352.763	50.3291	-0.221716	0	-0.870949	-0.000633833	0.219397	0.0313017
6.96	1.1044	436.489	-56.3466	-0.246911	0	-0.404298	-0.00625505	-2.47217	0.319134	-0.794391	351.14	50.187	-0.223271	0	-0.870278	-0.0004096	0.181053	0.0258771
6.97	0.887136	428.135	-55.7848	-0.247555	0	-0.404369	-0.00473861	-2.28687	0.297973	-0.605268	349.749	50.0481	-0.224885	0	-0.869556	-0.000251304	0.145214	0.0207797
6.98	0.61402	419.414	-55.0911	-0.248192	0	-0.404469	-0.00307617	-2.10122	0.276	-0.460985	348.545	49.9088	-0.226537	0	-0.868789	-0.000146186	0.11053	0.0158269
6.99	0.302359	410.291	-54.258	-0.248819	0	-0.404599	-0.0014104	-1.91387	0.253095	-0.370908	347.482	49.7663	-0.228207	0	-0.867983	-8.09573e-05	0.0758442	0.0108624
7	-0.0304365	400.731	-53.2761	-0.249437	0	-0.404758	0.000130923	-1.72376	0.229169	-0.343702	346.522	49.62	-0.229873	0	-0.867144	-3.98434e-05	0.0401703	0.00575216
7.01	-0.366191	390.697	-52.1334	-0.250045	0	-0.40495	0.00143401	-1.52997	0.204155	-0.386137	345.632	49.4704	-0.231519	0	-0.866279	-2.95805e-06	0.00264775	0.000378974
7.02	-0.685549	380.147	-50.8165	-0.250644	0	-0.405176	0.00240154	-1.33169	0.178015	-0.50161	344.791	49.3167	-0.233131	0	-0.865391	5.45925e-05	-0.0375252	-0.00536736
7.03	-0.969511	369.05	-49.3151	-0.251235	0	-0.405437	0.00296404	-1.12828	0.150769	-0.68896	343.991	49.1561	-0.234699	0	-0.864485	0.000162294	-0.081032	-0.0115794
7.04	-1.19989	357.397	-47.6263	-0.251821	0	-0.405735	0.0030872	-0.919551	0.122538	-0.940473	343.239	48.9835	-0.236223	0	-0.863561	0.000351646	-0.128338	-0.0183151
7.05	-1.3597	345.219	-45.7576	-0.25241	0	-0.40607	0.00278071	-0.706002	0.0935782	-1.24096	342.551	48.7913	-0.237705	0	-0.862619	0.000650701	-0.179618	-0.0255838
7.06	-1.43454	332.579	-43.7255	-0.253013	0	-0.406439	0.00210844	-0.488814	0.0642663	-1.56953	341.955	48.5713	-0.239152	0	-0.861656	0.00107742	-0.234738	-0.0333422
7.07	-1.4138	319.575	-41.5539	-0.253639	0	-0.406841	0.00119376	-0.269836	0.0350864	-1.90226	341.483	48.3156	-0.240574	0	-0.86067	0.00163453	-0.293422	-0.0415156
7.08	-1.29182	306.321	-39.2705	-0.254299	0	-0.407271	0.000216861	-0.0514229	0.00659245	-2.21355	341.173	48.018	-0.24198	0	-0.859663	0.00230493	-0.355257	-0.0500003
7.09	-1.06751	292.939	-36.9052	-0.255003	0	-0.407725	-0.000596884	0.163793	-0.0206351	-2.47641	341.064	47.6748	-0.243377	0	-0.858636	0.00304653	-0.419584	-0.0586505
7.1	-0.742982	279.562	-34.4895	-0.255758	0	-0.408194	-0.000991166	0.372946	-0.0460103	-2.66408	341.2	47.2855	-0.244776	0	-0.857594	0.00379125	-0.485561	-0.0672919
7.11	-0.322372	266.339	-32.0573	-0.256571	0	-0.40867	-0.000693591	0.573035	-0.0689721	-2.75287	341.641	46.8556	-0.246178	0	-0.856548	0.0044493	-0.552174	-0.0757301
7.12	0.188749	253.44	-29.6457	-0.25744	0	-0.409141	0.000566682	0.760903	-0.0890054	-2.72481	342.468	46.3996	-0.247589	0	-0.855507	0.00492032	-0.618411	-0.083786
7.13	0.784185	241.054	-27.2949	-0.258363	0	-0.409592	0.00303614	0.933291	-0.105678	-2.57089	343.787	45.9417	-0.249003	0	-0.854487	0.00511053	-0.683396	-0.091325
7.14	1.45816	229.394	-25.0491	-0.259326	0	-0.410005	0.00690949	1.08698	-0.118695	-2.29068	345.715	45.5137	-0.250415	0	-0.853504	0.00494558	-0.746399	-0.098264
7.15	2.20491	218.698	-22.9576	-0.260306	0	-0.410356	0.0122898	1.21899	-0.127962	-1.8886	348.358	45.1494	-0.251812	0	-0.852575	0.0043738	-0.806759	-0.104561
7.16	3.01674	209.227	-21.075	-0.261267	0	-0.410619	0.0191275	1.32659	-0.133625	-1.37152	351.788	44.8794	-0.253184	0	-0.851715	0.00336753	-0.863754	-0.110193
7.17	3.88171	201.264	-19.4599	-0.262156	0	-0.410763	0.0271444	1.40742	-0.136081	-0.748887	356.038	44.7287	-0.254518	0	-0.850938	0.00192779	-0.916516	-0.115141
7.18	4.78231	195.099	-18.1727	-0.26291	0	-0.410761	0.0357829	1.4598	-0.135975	-0.0325661	361.111	44.718	-0.255804	0	-0.850252	8.69445e-05	-0.964089	-0.119387
7.19	5.69458	191.009	-17.2716	-0.263471	0	-0.410593	0.0442157	1.4831	-0.134106	0.764323	366.985	44.8637	-0.257037	0	-0.849661	-0.00209397	-1.0054	-0.12291
7.2	6.58882	189.239	-16.8082	-0.263786	0	-0.410255	0.0514558	1.47787	-0.131265	1.62808	373.613	45.1777	-0.258215	0	-0.849167	-0.00452838	-1.03918	-0.125658
7.21	7.43176	189.972	-16.8224	-0.263833	0	-0.409762	0.0565678	1.44599	-0.128046	2.54388	380.925	45.6668	-0.259339	0	-0.848765	-0.00710563	-1.06401	-0.127558
7.22	8.18851	193.312	-17.3381	-0.263614	0	-0.409144	0.0589085	1.3907	-0.124731	3.49635	388.815	46.3299	-0.260414	0	-0.848451	-0.00969977	-1.07867	-0.128531
7.23	8.82224	199.264	-18.3603	-0.263162	0	-0.408444	0.0582853	1.31647	-0.1213	4.47067	397.142	47.1573	-0.261444	0	-0.848213	-0.0121838	-1.08232	-0.128516
7.24	9.29357	207.722	-19.8733	-0.262527	0	-0.407708	0.0549729	1.22871	-0.117554	5.45235	405.738	48.131	-0.262434	0	-0.848044	-0.01444	-1.07455	-0.12747
7.25	9.56192	218.46	-21.8382	-0.261763	0	-0.40698	0.0496072	1.13337	-0.113297	6.42763	414.413	49.2241	-0.26339	0	-0.84793	-0.0163701	-1.05544	-0.125366
7.26	9.58944	231.141	-24.1924	-0.260925	0	-0.406297	0.0430098	1.0367	-0.108506	7.38375	422.961	50.4005	-0.264313	0	-0.84786	-0.0179013	-1.02544	-0.122192
7.27	9.34658	245.324	-26.8518	-0.260058	0	-0.405687	0.0359971	0.944831	-0.103416	8.30929	431.167	51.615	-0.265205	0	-0.847821	-0.0189883	-0.985298	-0.11795
7.28	8.81794	260.487	-29.7155	-0.259201	0	-0.405166	0.0292287	0.86343	-0.0984974	9.19475	438.811	52.8163	-0.266069	0	-0.847802	-0.0196129	-0.93601	-0.11266
7.29	8.00547	276.061	-32.6719	-0.258385	0	-0.404747	0.0231242	0.797417	-0.0943746	10.0295	445.687	53.9515	-0.266899	0	-0.847794	-0.0197802	-0.87898	-0.106403
7.3	6.92856	291.477	-35.6079	-0.257642	0	-0.404434	0.0178508	0.750962	-0.0917404	10.7985	451.617	54.9713	-0.26769	0	-0.847788	-0.019514	-0.816121	-0.0993392
7.31	5.62276	306.204	-38.4186	-0.257	0	-0.404229	0.0133565	0.727367	-0.0912611	11.4817	456.466	55.8335	-0.268431	0	-0.847778	-0.018857	-0.749678	-0.0916983
